<svg width="574" height="284" viewBox="0 0 574 284" fill="none" xmlns="http://www.w3.org/2000/svg">
<g opacity="0.78">
<path opacity="0.69" d="M458.537 175.18C459.829 176.386 461.121 177.191 462.782 176.588C464.258 175.984 465.919 175.984 467.396 175.381C468.688 174.777 469.979 173.973 471.087 173.169C472.01 172.364 472.01 170.956 471.271 169.951C469.241 167.537 466.842 165.526 463.705 164.722C461.305 164.118 459.091 163.113 456.691 161.705C453.923 159.895 450.601 160.297 447.464 161.303C443.034 162.711 438.605 164.118 434.36 165.526C427.347 167.94 420.518 170.353 413.69 172.766C407.599 174.979 401.324 177.191 395.234 179.403C394.68 179.604 393.942 179.805 393.204 180.006C393.019 178.8 393.758 178.599 394.496 178.398C404.831 174.576 415.166 170.755 425.501 167.135C431.407 165.124 437.313 163.314 443.219 161.303C443.772 161.102 444.326 160.699 445.249 160.297C444.326 159.493 443.588 159.09 442.665 158.286C443.403 157.28 443.957 156.677 444.326 155.873C443.219 154.867 442.296 154.465 440.82 154.867C438.42 155.873 436.021 156.677 433.622 157.482C424.763 160.699 415.904 163.716 407.046 167.135C401.14 169.347 395.234 171.962 389.328 174.576C387.298 175.381 385.453 176.789 383.607 177.995C382.5 177.593 382.684 176.588 383.238 175.984C384.899 174.777 386.56 173.973 388.221 173.169C398.372 168.141 409.076 164.923 419.411 160.901C426.793 158.085 433.991 155.47 441.558 152.655C441.558 151.448 441.373 150.443 441.373 149.437C441.373 147.627 441.189 145.616 441.373 143.806C441.927 139.985 443.772 138.175 447.464 137.772C448.94 137.571 450.232 137.772 451.708 137.772C454.846 137.571 457.983 137.37 461.121 137.169C461.674 137.169 462.228 136.767 462.966 136.566C463.889 133.348 464.074 130.532 463.151 127.314C462.413 124.7 461.859 122.085 462.228 119.27C462.597 116.253 461.859 113.437 459.644 111.426C458.168 110.018 457.061 108.208 457.061 106.197C457.061 103.18 455.4 101.572 453 100.566C451.893 100.164 450.97 99.7615 449.678 99.1581C449.125 95.337 446.356 94.3314 443.219 93.5269C441.004 93.1247 438.974 92.3202 436.759 91.918C433.437 91.1135 429.931 89.9068 426.424 89.9068C426.24 89.9068 426.055 89.5046 425.501 89.1024C425.871 88.9013 426.24 88.499 426.609 88.499C428.823 88.7001 431.038 88.7001 433.253 89.1024C436.575 89.9068 440.081 90.7113 443.403 91.7169C445.064 92.1191 446.725 92.9236 448.386 93.5269C449.494 93.9291 450.416 94.7336 450.786 95.9403C451.155 97.5492 452.262 98.1526 453.369 98.5548C454.108 98.7559 454.846 99.1581 455.584 99.5604C457.43 100.566 458.722 102.175 458.722 104.387C458.722 107.203 460.013 109.214 461.674 111.225C463.335 113.236 464.258 115.65 463.889 118.264C463.52 121.884 464.258 125.102 465.181 128.521C465.735 130.733 465.735 132.946 465.735 135.158C465.735 136.767 464.996 137.772 463.705 138.376C462.597 138.778 461.675 139.18 460.567 139.18C457.799 139.381 454.846 139.381 452.078 139.582C450.416 139.783 448.94 139.783 447.464 140.387C445.433 140.99 444.142 142.599 444.142 144.811C443.957 146.822 444.142 148.834 444.142 151.046C445.064 151.448 445.803 151.649 446.541 152.051C447.094 153.057 445.987 154.264 447.094 155.269C447.833 155.873 448.017 157.28 448.756 158.688C451.708 158.688 455.03 158.688 458.537 158.688C459.091 159.493 459.46 160.498 460.013 161.504C464.443 161.906 468.318 164.118 471.456 167.537C471.825 167.94 472.379 168.543 472.748 168.945C474.224 170.956 473.855 173.169 472.194 174.979C470.902 176.185 469.795 176.99 468.134 177.392C465.55 177.995 462.966 179.001 460.567 180.006C460.198 181.012 460.567 181.615 461.305 181.817C463.705 183.023 465.735 185.034 468.688 185.034C469.61 185.034 469.61 186.844 470.718 187.448C472.563 188.252 474.224 189.66 476.255 190.867C476.993 190.666 477.731 190.263 478.654 190.263C479.207 190.263 480.13 190.464 480.315 190.867C481.053 193.079 482.898 195.09 481.607 198.107C479.761 202.33 477.362 205.749 473.117 207.358C471.456 207.962 469.426 208.364 468.318 210.576C470.164 212.788 473.302 213.593 474.778 216.408C474.409 216.609 474.04 217.012 473.855 216.811C470.902 214.799 467.949 212.788 464.627 210.576C461.305 211.783 457.614 212.989 453.923 214.397C447.464 216.811 441.004 219.224 434.729 221.637C432.515 222.442 430.3 223.447 428.27 224.855C427.716 225.257 426.793 225.056 426.055 225.056C425.87 225.056 425.686 224.654 425.501 224.453C427.347 222.643 428.085 222.241 430.115 221.436C438.974 218.218 447.833 214.799 456.691 211.582C458.722 210.777 460.567 210.174 462.597 209.57C466.473 208.565 469.98 206.554 473.671 204.945C476.624 203.537 478.469 201.124 479.946 198.308C481.053 196.096 480.315 193.28 478.1 192.878C474.224 191.872 471.087 189.057 467.396 187.649C467.027 187.448 466.842 187.448 466.288 187.448C455.769 192.073 444.88 196.297 433.806 200.118C421.072 204.341 408.707 209.168 396.341 214.598C395.05 215.202 393.758 215.604 392.281 216.207C391.727 215.001 392.65 214.598 393.204 214.397C398.002 212.185 402.801 210.174 407.784 208.163C415.166 205.347 422.733 202.733 430.3 199.917C439.528 196.498 448.94 192.878 458.168 189.459C460.013 188.654 462.044 187.85 463.889 187.046C463.52 185.034 461.859 185.034 460.752 184.23C457.983 182.42 457.799 182.42 455.953 179.403C451.339 181.012 446.725 182.822 442.112 184.431C438.051 186.04 433.991 187.649 430.115 189.057C424.948 191.068 419.596 193.079 414.428 195.09C410.552 196.699 406.677 198.107 402.801 199.515C402.063 199.716 401.324 199.515 400.402 199.515V199.716C400.771 199.314 401.14 198.509 401.694 198.308C406.861 196.297 412.029 194.286 417.381 192.275C423.84 189.861 430.115 187.448 436.575 184.833C443.588 182.219 450.601 179.403 457.614 176.789C457.799 175.783 458.168 175.582 458.537 175.18Z" fill="white"/>
<path d="M515.011 253.012C518.887 255.023 521.84 256.632 524.793 258.241C525.162 258.442 525.716 258.442 526.085 258.844C529.96 262.464 534.39 261.257 538.819 260.654C541.956 260.252 544.909 258.844 548.231 259.045C551 262.263 553.768 265.28 556.352 268.497C558.567 271.313 561.15 272.721 564.288 273.726C566.687 274.33 569.086 275.335 571.486 276.341C574.254 277.548 574.623 278.955 573.147 281.972C572.962 282.576 572.408 282.978 572.039 283.38C570.194 282.173 572.039 280.564 571.301 279.358C571.117 279.358 570.932 278.955 570.747 278.754C568.164 277.749 565.764 276.743 563.181 275.738C559.674 274.33 556.721 272.52 554.322 269.302C552.292 266.486 549.708 264.274 546.94 261.458C545.279 261.861 543.433 262.665 541.587 262.866C534.943 263.671 528.299 264.676 522.578 259.648C519.994 257.436 517.041 256.632 514.089 255.224C513.535 255.023 512.797 254.822 512.427 254.419C512.058 254.017 511.505 253.213 511.689 252.81C511.689 252.207 512.243 251.403 512.612 251.202C514.642 250.598 516.672 250.196 518.702 249.995C520.179 249.794 521.84 249.794 523.501 249.593C524.608 249.392 525.346 248.788 525.531 247.581C525.9 244.766 526.454 242.151 524.424 239.738C523.87 239.135 523.501 238.33 523.316 237.526C522.578 234.107 519.994 233.101 517.226 232.498C515.749 232.096 514.088 232.096 512.427 231.894C509.659 231.492 509.659 231.492 506.891 228.878C505.968 228.878 504.861 229.079 503.753 229.079C500.616 228.878 499.324 227.671 498.586 224.252C498.401 223.247 498.217 222.241 498.032 221.235C496.74 217.012 494.341 215.604 490.834 217.414C488.435 218.621 486.036 220.23 483.821 221.839C481.606 223.448 479.392 225.258 477.177 226.867C476.439 227.47 475.332 227.671 474.778 226.263C474.962 224.654 476.254 223.649 477.177 222.643C479.392 220.431 481.791 218.42 483.821 216.006C485.851 213.593 488.251 212.789 491.019 212.587C492.126 212.587 493.234 212.587 494.341 212.587C496.186 212.587 497.478 213.392 498.217 215.202C499.324 217.615 500.062 220.23 500.8 222.844C501.723 226.062 502.277 226.665 505.414 226.867C506.153 226.867 507.075 226.867 507.814 226.665C509.29 226.665 510.582 226.464 511.136 228.476C511.32 228.878 512.058 229.28 512.797 229.28C514.273 229.682 515.934 229.883 517.41 230.084C520.917 230.487 523.685 232.096 525.162 235.917C525.531 236.922 526.085 237.727 526.638 238.531C529.038 241.95 528.484 245.771 527.746 249.392C527.377 251 526.454 251.805 525.162 252.006C523.132 252.408 521.102 252.609 519.071 252.81C517.41 252.81 516.672 252.81 515.011 253.012Z" fill="white"/>
<path opacity="0.69" d="M95.5139 204.342C94.9602 203.94 94.4066 203.337 93.6683 202.934C91.2691 201.325 90.9 198.912 91.4536 196.096C92.0073 193.482 93.2992 191.27 95.6985 190.063C98.0977 188.856 99.7587 187.247 100.866 184.432C102.342 180.812 105.295 178.599 108.433 176.789C109.725 176.186 111.201 175.784 112.493 175.583C118.214 174.778 123.382 176.789 128.55 179.002C129.841 179.605 130.949 180.611 131.872 181.817C132.979 183.024 132.979 184.432 132.056 185.84C130.949 185.84 130.949 185.236 130.764 184.633C130.395 183.828 130.026 182.823 129.472 182.622C124.858 180.41 120.429 177.795 115.077 177.996C109.356 178.197 104.926 181.013 102.342 186.443C101.051 188.856 99.3896 190.465 97.1749 191.471C94.0374 192.879 92.9301 194.689 93.1146 198.108C93.1146 199.717 93.6683 201.124 95.1448 201.929C95.6984 202.13 96.2521 202.532 96.8058 202.934C97.7286 203.739 97.7286 205.348 96.8058 206.152C95.6984 206.957 94.4065 207.962 93.1146 208.566C90.7154 209.973 88.1316 211.582 85.5479 212.789C81.1185 215.001 76.6891 217.415 72.0752 219.024C68.1995 220.431 64.1392 219.225 60.8172 216.409C58.418 214.398 56.0188 213.996 53.2504 213.795C50.6666 213.795 47.8983 216.409 47.5292 219.024C47.16 220.834 46.9755 222.845 46.7909 224.454C45.1299 224.856 43.4689 224.856 41.9925 225.459C40.7006 226.264 39.5932 227.672 38.1167 228.878C35.1638 229.884 30.7345 228.677 30.1808 234.308C28.1507 234.912 26.4897 235.113 24.8286 234.107C23.5367 233.504 22.2449 232.901 20.7684 232.498C19.4765 232.096 18.5537 232.498 18.0001 233.705C17.631 234.51 17.2618 235.515 16.8927 236.722C11.5406 239.537 4.89656 239.94 0.651758 245.571C-0.271026 242.956 -0.27106 242.755 1.02084 241.951C3.97374 240.342 6.92669 238.733 9.87959 237.124C10.8024 236.722 11.7251 236.32 12.4634 235.917C14.1244 235.113 15.2317 234.107 15.9699 232.096C17.0773 229.079 18.9229 228.677 21.6912 230.487C22.614 231.091 23.5368 231.694 24.6441 232.096C25.3824 232.498 26.1206 232.498 27.2279 232.699C29.6272 229.281 32.7646 227.269 36.4557 226.264C37.0094 226.063 37.7476 225.862 38.1167 225.258C39.9623 223.046 42.3615 222.241 45.1299 222.04C45.3144 220.834 45.3145 219.828 45.499 218.823C46.0527 213.594 50.1129 209.973 54.7269 210.979C56.3879 211.381 58.0489 211.783 59.5253 212.99C60.079 213.392 60.6327 213.795 61.1863 213.996C65.4311 216.409 69.4914 217.214 74.2899 215.202C81.303 212.186 87.9471 208.566 94.4066 204.744C94.9602 205.348 95.1448 204.946 95.5139 204.342Z" fill="white"/>
<path opacity="0.69" d="M242.236 35.0019C241.314 33.7952 240.76 32.7896 240.022 31.9851C237.438 28.5662 236.515 24.745 236.331 20.5216C236.146 16.9015 237.253 13.6836 239.468 11.0691C240.76 9.46021 242.052 8.05241 243.344 6.64461C245.743 4.23122 248.511 2.62231 251.833 2.22008C258.293 1.2145 264.752 1.01338 271.212 1.61672C273.426 1.81784 275.826 3.02453 277.856 4.0301C278.779 4.43233 279.332 5.63903 280.255 6.64461C279.332 6.84572 278.779 7.04682 278.41 6.8457C276.379 5.84013 274.349 4.83455 272.504 3.82897C271.95 3.62786 271.212 3.42675 270.658 3.42675C266.967 2.8234 254.971 3.82899 251.464 5.03568C247.773 6.24237 245.005 8.65576 242.605 11.6725C240.76 14.0859 239.837 17.1026 239.837 20.3205C240.022 24.745 240.76 28.7673 243.528 32.3874C244.451 33.5941 245.374 35.203 245.928 36.8119C246.112 37.2141 245.927 38.2197 245.558 38.8231C245.189 39.4264 244.636 39.2253 243.897 39.0242C241.683 38.0186 239.653 38.8231 238.176 40.8342C236.884 42.4431 235.592 43.8509 234.3 45.4599C233.931 45.8621 233.193 45.661 232.455 45.661C233.747 42.8454 236.146 41.8398 236.7 39.0242C236.884 38.4208 237.992 38.0186 238.545 37.6164C239.837 36.4097 240.944 35.8063 242.236 35.0019Z" fill="white"/>
<path opacity="0.69" d="M318.089 37.6172C316.982 38.4217 315.875 38.4217 314.767 37.8184C313.291 36.8128 311.999 35.405 311.999 33.3938C311.999 31.5838 311.999 29.5726 312.183 27.7626C312.737 23.7403 312.183 19.9191 310.522 16.0979C309.6 14.0867 308.492 12.2767 306.831 10.8689C304.617 9.05885 302.587 7.24882 300.372 5.43878C298.157 3.62874 295.573 2.8243 292.805 2.62318C289.298 2.42206 285.792 2.42205 282.47 2.42205C281.362 2.42205 280.255 2.62317 279.148 2.42205C278.594 2.42205 278.225 1.61758 277.302 0.813123C284.315 0.410893 290.59 -0.795799 296.865 0.813123C298.895 1.21535 300.741 2.01983 302.402 3.62876C304.063 5.03656 305.724 6.44437 307.385 7.65106C312.553 11.4723 314.767 16.9024 315.136 23.5392C315.321 26.3548 315.505 29.1704 314.767 32.1871C314.029 35.0027 314.583 35.6061 317.536 37.0139C317.72 36.8128 317.72 37.215 318.089 37.6172Z" fill="white"/>
<path opacity="0.69" d="M391.358 89.7061C390.62 86.2871 390.066 83.4715 389.328 80.857C388.59 77.8403 386.929 75.8291 383.791 75.2258C382.5 75.0247 381.208 74.4213 380.285 73.818C378.439 72.4102 376.594 72.2091 374.379 72.4102C373.087 72.6113 371.98 72.4102 370.688 72.4102C370.134 71.6057 369.765 71.2035 369.396 70.6001C367.181 66.779 364.044 63.7622 361.46 60.5444C360.906 59.7399 359.984 59.1366 359.245 58.7343C354.447 56.7232 349.464 55.5165 345.035 59.941C344.85 60.1421 344.112 60.1421 343.743 59.941C343.558 59.7399 343.374 58.9355 343.558 58.5332C345.588 54.9131 350.571 53.1031 354.447 54.3098C356.477 54.9131 358.323 55.7176 360.168 56.7232C361.276 57.3265 362.383 58.131 363.121 59.1365C365.151 61.5499 364.967 61.7511 368.289 62.7566C368.473 65.5722 369.027 68.3879 371.611 69.9968C373.272 69.7957 375.117 69.1923 376.594 69.5946C378.255 69.9968 379.731 71.2035 381.208 72.0079C381.946 72.4102 382.684 73.2146 383.791 72.6113C385.452 71.8068 386.56 72.8124 387.483 74.0191C388.959 75.8291 390.251 77.8403 390.805 80.2537C391.174 82.8682 391.727 85.2815 392.097 87.896C392.281 88.0972 391.912 88.4994 391.358 89.7061Z" fill="white"/>
<path opacity="0.69" d="M90.7153 252.409C90.3462 254.017 89.4234 254.822 87.7624 254.621L87.947 254.822C88.1315 254.219 88.5006 253.615 88.6852 252.811C86.655 251.202 84.2558 251.604 82.4103 252.409C80.5647 253.012 78.9037 253.012 77.0581 253.012C73.1824 253.012 69.3068 253.615 65.2465 254.017C63.9546 254.219 62.6627 255.224 61.3708 255.828L61.5554 256.029C60.8171 255.023 59.8944 254.219 58.787 254.621C55.465 255.224 52.1429 254.219 49.0055 255.425C48.8209 255.626 48.4518 255.425 48.0827 255.425C45.4989 254.219 42.7306 254.822 40.1468 255.224C32.0263 256.029 23.7212 256.833 15.7853 258.442C15.4162 258.442 15.0471 258.241 14.4934 258.04C14.678 257.638 14.8625 257.235 15.0471 257.235C17.4463 256.632 20.0301 255.828 22.4293 255.626C30.5498 254.822 38.8548 253.816 46.9753 253.414C49.19 253.213 51.4047 252.006 53.804 252.811C55.8341 253.414 58.2333 253.012 60.448 252.811C61.9245 252.811 63.4009 252.61 64.6928 252.207C65.6156 251.805 66.5384 251.001 67.2766 250.196C68.0148 251.001 68.9376 251.604 70.2295 251.604C73.9206 251.202 77.7963 251.001 81.4875 250.397C82.9639 250.196 84.4404 249.191 85.9168 248.587L85.7323 248.386C85.9168 249.392 86.4705 250.196 87.5778 249.995C89.0543 249.794 90.1616 250.397 90.7153 252.006V252.409Z" fill="white"/>
<path opacity="0.69" d="M196.651 171.962C198.681 171.962 200.158 171.761 201.634 171.962C202.003 171.962 202.926 172.968 202.741 173.37C202.188 176.186 201.449 179.001 199.235 181.012C199.235 181.012 198.866 181.012 198.681 181.012C197.389 179.001 199.788 177.594 199.235 175.18C197.758 174.778 196.282 174.175 194.436 173.37C194.436 172.364 194.067 171.359 194.252 170.353C194.805 167.538 193.883 165.124 192.222 163.314C190.93 161.705 189.269 160.298 187.608 158.89C186.316 157.683 184.839 156.677 183.547 155.27C182.44 154.063 181.517 152.655 180.779 151.247C179.856 149.437 180.225 147.627 181.886 146.219C182.44 145.616 183.178 145.214 183.916 144.812C185.762 143.806 187.239 142.398 187.792 140.387C188.161 140.186 188.53 140.186 188.53 140.186C189.084 141.192 189.638 142.197 190.191 143.404C188.346 144.611 186.5 145.616 184.839 146.823C182.255 148.834 182.071 150.845 184.47 153.057C186.5 155.069 188.9 157.08 190.93 159.091C194.436 162.309 197.02 166.13 196.651 171.962Z" fill="white"/>
<path opacity="0.69" d="M468.318 196.699C467.765 197.101 467.396 197.504 466.842 197.705C456.691 202.33 446.356 206.554 435.836 210.375C427.347 213.593 418.673 216.408 410.183 219.626C407.23 220.632 404.093 221.637 401.509 223.85C401.324 224.051 400.586 223.85 400.217 223.85C400.032 223.85 400.032 223.648 399.848 223.447C400.217 221.838 401.324 221.436 402.432 221.034C406.123 219.425 409.814 218.017 413.69 216.609C422.548 213.392 431.407 210.375 440.266 207.157C448.017 204.14 455.584 200.922 463.335 197.503C464.258 197.101 464.812 196.297 465.735 195.895C466.473 195.693 467.396 195.895 468.318 195.895C468.134 196.096 468.134 196.297 468.318 196.699Z" fill="white"/>
<path opacity="0.69" d="M381.392 193.079C381.946 192.677 382.315 192.074 382.869 191.873C388.221 189.66 393.573 187.448 398.925 185.437C407.599 182.219 416.274 179.001 424.948 175.984C435.098 172.364 445.434 168.744 455.584 165.124C456.322 164.923 457.061 164.923 457.983 165.526C457.245 165.929 456.507 166.532 455.584 166.934C447.833 169.75 439.897 172.565 432.145 175.18C423.102 178.398 414.059 181.415 405.2 184.833C398.556 187.247 392.097 190.062 385.637 192.878C384.345 193.28 383.053 194.286 381.392 193.079Z" fill="white"/>
<path opacity="0.69" d="M324.179 49.2819C322.518 45.863 318.643 44.8574 317.905 40.634C318.827 38.6228 320.488 38.4217 322.149 37.8184C322.703 39.6284 321.042 39.8295 320.857 41.2373C320.857 42.8462 322.149 43.6507 323.257 44.6563C326.025 46.8685 326.948 49.6842 326.025 53.3042C325.84 54.1087 325.84 55.3154 326.21 56.321C326.948 58.5332 327.871 60.7455 328.609 62.9578C329.716 65.9745 331.377 66.9801 334.146 66.3767C336.545 65.9745 338.944 64.9689 341.343 64.1645C343.004 63.5611 344.481 62.7567 346.142 61.9522C346.695 61.7511 347.249 61.9522 348.356 62.1533C347.434 63.1589 347.064 63.9633 346.326 64.3656C342.82 66.779 338.759 67.7845 334.884 68.7901C331.193 69.5946 327.686 67.5834 326.21 63.36C325.656 61.55 325.102 59.7399 324.179 58.131C322.888 55.9187 322.334 53.7065 323.626 51.2931C323.81 50.6897 323.995 49.8853 324.179 49.2819Z" fill="white"/>
<path opacity="0.69" d="M152.727 120.88C150.696 122.086 149.589 122.69 148.297 123.494C144.791 125.505 143.683 128.723 145.16 132.544C145.898 134.555 147.19 136.365 148.482 138.175C150.143 140.388 150.143 141.192 148.297 142.801C147.743 143.404 147.005 143.807 146.267 144.209C146.452 144.611 146.636 145.013 146.821 145.013C150.143 146.622 150.696 149.036 149.589 152.656C149.035 154.265 149.404 156.075 149.22 158.086C147.743 157.684 147.374 156.276 147.374 155.069C147.559 153.46 147.928 152.052 148.297 150.443C148.666 148.835 148.113 147.628 146.636 147.226C144.975 146.622 143.314 146.22 142.207 144.812C142.207 141.594 145.16 141.795 146.267 140.388C145.16 138.175 143.683 135.963 142.76 133.55C140.177 126.913 143.683 121.081 150.327 120.276C151.065 120.075 151.435 120.477 152.727 120.88Z" fill="white"/>
<path opacity="0.69" d="M156.787 116.254C153.834 116.455 153.095 114.041 152.173 112.231C151.434 110.823 151.434 109.215 152.357 107.807C153.095 106.6 153.649 105.393 154.572 104.589C157.525 101.773 160.662 99.1588 164.907 98.7566C166.384 98.5555 168.045 98.1532 169.521 97.751C174.504 96.1421 179.118 97.5499 183.916 99.561C184.655 99.7621 185.393 100.366 185.024 101.773C182.44 101.17 180.041 100.567 177.457 99.9633C176.534 99.7621 175.611 99.3599 174.689 99.561C169.152 100.768 163.431 101.371 158.448 104.79C157.525 105.393 156.602 106.198 155.864 107.203C153.465 110.22 153.28 112.03 155.679 114.846C156.233 115.047 156.417 115.65 156.787 116.254Z" fill="white"/>
<path opacity="0.69" d="M429.746 103.181C431.038 104.79 431.223 106.197 430.669 107.806C430.115 109.415 428.823 110.019 427.347 110.622C420.334 113.035 418.119 113.236 410.552 113.236C407.784 113.236 406.307 111.426 404.462 109.817C403.908 109.415 403.908 107.806 404.093 107.002C404.462 104.79 403.724 103.382 402.432 101.974C400.771 100.365 399.479 98.5549 397.818 96.7449C396.157 95.136 394.496 93.527 392.835 91.9181C393.204 90.5103 394.127 90.9125 394.68 91.3148C395.972 92.3203 397.264 93.3259 398.371 94.5326C400.217 96.5438 402.063 98.756 403.908 100.968C405.754 103.181 406.492 105.594 405.938 108.41C407.968 111.024 410.552 111.426 413.32 111.225C418.488 110.823 423.287 109.616 428.27 107.806C428.454 107.002 428.639 106.197 428.823 105.393C429.192 104.588 429.377 103.985 429.746 103.181Z" fill="white"/>
<path opacity="0.69" d="M63.2163 261.459C64.6928 262.062 64.8773 263.269 65.0619 264.275C65.8001 267.492 67.6457 269.302 70.7832 269.101C72.9978 268.9 74.6588 269.906 76.1353 271.515C77.9809 273.526 80.3801 274.531 82.9639 274.531C83.8866 274.531 84.8094 274.531 85.7322 274.733C91.2689 276.342 96.4365 274.733 101.42 272.52C102.896 271.917 104.372 271.113 105.849 270.509C106.587 270.308 107.325 270.308 109.171 269.906C106.772 272.319 104.926 273.325 102.896 274.129C99.7586 275.336 96.6211 276.341 93.299 277.146C91.8226 277.548 90.1616 277.548 88.6851 277.548C85.9168 277.347 82.9639 276.945 80.1955 276.543C77.9808 276.14 76.3198 275.135 74.8434 273.325C73.3669 271.515 71.8905 270.509 69.4912 270.911C68.3839 271.113 66.9075 270.509 65.9847 269.705C63.9546 267.694 62.8472 264.878 63.2163 261.459Z" fill="white"/>
<path opacity="0.69" d="M211.6 85.6843C212.154 86.6899 212.338 87.4943 211.6 88.4999C209.939 88.9021 208.832 87.6954 207.724 87.0921C206.802 86.4888 205.879 85.6843 204.956 85.0809C202.557 83.6731 200.158 83.472 197.758 84.6787C196.836 85.081 196.097 85.4832 195.175 86.0865C191.114 88.4999 190.192 90.5111 190.93 95.9412C190.007 95.9412 188.9 96.1423 187.423 96.1423C188.161 97.349 188.715 97.9523 189.084 98.7568C188.9 98.9579 188.715 99.3601 188.531 99.3601C186.5 99.3601 185.762 97.7512 185.578 96.1423C185.578 95.5389 185.947 94.5334 186.5 93.93C187.054 93.3267 187.792 93.1256 188.715 92.7233C188.715 87.6955 191.668 85.0809 195.359 83.0698C196.097 82.6676 196.836 82.4664 197.574 82.0642C201.08 79.852 204.218 80.6564 207.171 83.2709C207.909 83.8742 208.463 84.6787 209.385 85.282C209.755 85.4832 210.677 85.4832 211.6 85.6843Z" fill="white"/>
<path opacity="0.69" d="M447.832 116.051C447.648 116.454 447.463 116.655 447.463 116.655C447.279 116.856 447.279 116.856 447.094 117.057C446.91 117.258 446.541 117.459 446.356 117.66C428.639 124.498 411.659 133.347 394.496 141.392C394.496 141.392 394.311 141.191 394.126 141.191C394.126 140.99 394.126 140.386 394.311 140.386C408.891 132.543 423.84 125.504 438.974 118.867C441.558 117.66 444.326 116.252 447.832 116.051Z" fill="white"/>
<path opacity="0.69" d="M153.096 166.934C152.911 162.711 149.958 162.509 148.113 160.901C148.113 159.895 148.666 159.493 149.405 159.694C152.911 160.699 155.126 163.113 155.126 167.336C153.649 169.347 150.881 169.75 150.143 172.565C149.405 174.979 148.297 177.392 147.19 180.006C147.744 181.213 148.297 182.621 149.035 184.029C148.113 185.437 147.005 186.04 145.713 186.241C143.13 186.442 140.73 186.643 138.147 186.844C137.962 186.844 137.593 186.241 137.224 185.638C139.808 184.029 142.391 184.029 144.975 183.828C144.606 180.208 144.606 180.208 146.083 176.386C146.083 176.185 146.267 175.984 146.267 175.984C147.374 171.962 148.851 168.342 153.096 166.934Z" fill="white"/>
<path opacity="0.69" d="M436.944 146.018C421.256 152.856 404.646 157.28 389.144 164.521C389.144 164.521 388.959 164.32 388.774 164.32C388.405 163.515 389.144 163.113 389.513 162.912C392.835 161.303 396.157 159.694 399.663 158.487C406.307 156.074 413.136 153.66 419.965 151.247C424.209 149.839 428.27 148.23 432.514 146.621C433.991 145.817 435.467 145.415 436.944 146.018Z" fill="white"/>
<path opacity="0.69" d="M439.897 112.834C428.27 117.862 416.827 122.689 405.2 127.717C404.646 127.113 405.016 126.309 405.754 125.907C407.784 124.901 409.63 123.694 411.844 122.89C419.596 119.672 427.162 116.655 434.914 113.639C436.575 113.035 438.236 112.633 439.712 112.03C439.712 112.231 439.897 112.633 439.897 112.834Z" fill="white"/>
<path opacity="0.69" d="M275.457 67.3828C275.272 67.785 275.272 68.1873 275.272 68.1873C273.796 68.5895 272.504 68.7906 271.027 68.9917C269.551 69.394 267.89 69.5951 266.414 69.9973C263.461 70.6007 261.8 72.8129 260.877 75.6286C259.769 78.8464 259.769 82.0642 260.323 85.6843C258.847 85.2821 258.293 84.0754 258.293 82.6676C258.478 80.6564 258.662 78.6453 259.031 76.6341C260.508 69.7962 262.169 67.9862 268.628 67.3828C270.289 67.1817 272.135 67.1817 273.796 66.9806C274.534 66.7795 274.903 67.1817 275.457 67.3828Z" fill="white"/>
<path opacity="0.69" d="M234.116 51.4934C233.747 52.7001 232.824 52.2978 232.27 52.2978C231.532 52.2978 230.609 52.4989 229.871 52.2978C226.18 51.8956 223.596 53.9067 221.381 56.7224C221.381 59.3369 224.334 59.3369 224.703 61.348C221.566 60.9458 221.012 60.5436 218.798 57.3257C221.935 50.89 228.025 49.08 234.116 51.4934Z" fill="white"/>
<path opacity="0.69" d="M229.133 100.768C232.455 100.365 234.854 96.5443 239.099 97.3487C236.146 99.1588 233.562 100.768 230.979 102.377C231.348 104.187 231.532 105.796 231.901 107.807C228.579 109.416 225.442 108.209 221.566 108.209C223.965 105.594 226.549 107.203 228.948 105.796C229.687 104.79 228.21 102.98 229.133 100.768Z" fill="white"/>
<path opacity="0.69" d="M211.6 85.6838C211.6 85.2816 211.6 85.0805 211.6 84.6782C211.231 82.0637 211.785 80.857 213.815 80.6559C215.661 80.4548 217.506 80.6559 219.167 80.6559C221.751 79.4492 221.197 76.8347 221.751 74.8236C222.305 74.6225 222.674 74.6225 223.043 74.4213L222.858 74.2202C223.597 75.4269 223.966 76.6336 223.412 78.0414C222.674 80.2537 221.751 82.0637 219.905 83.4715C218.244 83.2704 216.214 81.6615 214.184 83.2704C214.184 83.8738 214.184 84.4771 214 85.4827C213.261 85.6838 212.339 85.6838 211.6 85.6838Z" fill="white"/>
<path opacity="0.69" d="M135.194 283.381C134.086 283.582 133.717 283.783 133.348 283.783C129.103 282.978 125.228 281.37 121.536 278.956C118.399 276.945 118.03 275.135 118.953 270.71C120.06 270.71 120.983 270.71 122.459 270.71C121.721 271.917 120.983 272.722 120.429 273.727C120.798 275.738 121.906 277.146 123.567 277.951C125.412 278.956 127.258 279.761 129.103 280.766C130.949 281.571 132.794 282.375 135.194 283.381Z" fill="white"/>
<path opacity="0.69" d="M215.291 108.61C207.171 111.627 204.402 116.051 201.449 121.481C200.342 121.28 200.342 120.074 200.527 119.47C201.265 117.861 202.003 116.253 202.926 115.046C204.587 113.035 206.617 111.225 208.462 109.415C210.493 107.202 212.707 106.8 215.291 108.61Z" fill="white"/>
<path opacity="0.69" d="M397.264 109.014C395.603 111.226 393.573 111.226 392.281 110.019C390.436 108.611 388.59 107.807 386.375 107.405C385.083 107.204 383.976 106.198 383.976 104.589C383.791 102.779 384.161 101.17 385.822 100.366C386.191 100.165 386.744 100.366 387.114 100.366C386.744 101.774 386.191 103.181 385.822 104.79C387.114 105.193 388.036 105.796 389.144 105.997C390.805 106.399 392.466 106.399 393.758 108.209C394.127 109.014 395.788 108.813 397.264 109.014Z" fill="white"/>
<path opacity="0.69" d="M400.217 198.711C399.848 199.314 399.663 200.119 399.294 200.32C394.127 202.532 388.774 204.744 383.607 206.957C383.422 206.957 383.053 206.756 382.5 206.756C382.684 206.353 382.869 205.75 383.238 205.75C388.221 203.538 393.019 201.325 398.002 199.113C398.74 198.912 399.479 198.912 400.217 198.711C400.402 198.912 400.217 198.711 400.217 198.711Z" fill="white"/>
<path opacity="0.69" d="M409.076 139.985C409.076 139.583 409.076 139.18 409.26 139.18C414.612 136.767 419.964 134.354 425.87 133.348V133.147C425.87 133.549 425.87 133.951 425.87 133.951C420.149 136.365 414.797 138.778 409.076 139.985C409.076 139.985 408.891 139.784 409.076 139.985Z" fill="white"/>
<path opacity="0.69" d="M413.69 147.024C414.797 146.42 415.72 145.616 416.827 145.214C421.072 143.806 425.501 142.398 429.931 140.99C430.115 140.99 430.484 141.191 431.038 141.392C426.793 143.404 422.733 144.61 418.488 146.219C416.827 146.823 415.351 147.024 413.69 147.024Z" fill="white"/>
<path opacity="0.69" d="M223.227 74.4218C222.12 72.8129 221.012 71.2039 219.905 69.595C220.09 68.7906 220.643 68.3883 221.566 68.9917C222.858 69.7961 224.334 70.6006 225.257 71.8073C225.995 72.6117 225.995 73.8184 226.549 75.2262C225.073 74.6229 223.965 74.4218 223.227 74.4218C223.227 74.4218 223.042 74.2207 223.227 74.4218Z" fill="white"/>
<path opacity="0.69" d="M403.908 141.594C403.724 141.996 403.539 142.599 403.355 142.8C400.586 144.208 397.818 145.415 394.496 147.024C395.972 144.208 399.479 142.398 403.908 141.594Z" fill="white"/>
<path opacity="0.69" d="M72.6289 226.666C74.8436 223.448 78.1656 221.839 81.1185 219.426C81.1185 220.029 81.303 220.431 81.303 220.632C79.2729 222.442 77.0582 224.253 75.0281 226.063C74.4745 226.465 73.5517 226.666 72.6289 226.666C72.8135 226.867 72.6289 226.666 72.6289 226.666Z" fill="white"/>
<path opacity="0.69" d="M113.416 263.067C113.231 263.671 113.047 264.274 112.678 265.28C113.969 266.084 115.261 266.889 117.107 268.095C113.785 268.699 112.124 266.285 109.725 265.883C110.832 264.073 112.308 263.47 113.416 263.067Z" fill="white"/>
<path opacity="0.69" d="M99.7586 244.766C99.7586 245.168 100.128 245.973 99.9431 246.174C98.0976 247.984 96.4366 250.196 93.8528 250.598L94.0373 250.8C94.2219 249.191 95.5138 248.788 96.4366 247.984C97.3593 246.978 98.6512 245.973 99.7586 244.766C99.7586 244.967 99.7586 244.766 99.7586 244.766Z" fill="white"/>
<path opacity="0.69" d="M406.123 150.242C406.123 150.041 406.123 149.437 406.307 149.437C408.707 148.231 410.921 147.024 413.505 147.024L413.321 146.823C411.475 148.834 408.891 149.839 406.123 150.242Z" fill="white"/>
<path opacity="0.69" d="M93.8528 231.09C94.4065 228.676 96.4365 228.073 97.913 227.067C97.3593 229.28 95.5138 230.285 93.8528 231.09Z" fill="white"/>
<path opacity="0.69" d="M119.322 250.599C118.583 252.409 116.922 252.61 115.261 253.816C116.369 251.403 117.66 250.8 119.322 250.599Z" fill="white"/>
<path opacity="0.69" d="M406.123 150.241C404.462 151.046 402.801 152.051 401.14 152.856C401.14 152.253 401.14 151.448 401.509 151.448C402.801 150.845 404.277 149.236 406.123 150.241Z" fill="white"/>
<path opacity="0.69" d="M443.403 126.51C442.296 128.923 440.451 129.728 438.051 129.124C438.051 129.124 438.051 129.325 438.051 129.124C439.897 128.32 441.558 127.314 443.403 126.51Z" fill="white"/>
<path opacity="0.69" d="M404.093 141.795C405.385 139.985 407.046 139.181 409.076 139.985C409.076 139.985 408.891 139.784 409.076 139.784C407.599 141.192 405.938 142.197 404.093 141.795C404.093 141.795 403.908 141.594 404.093 141.795Z" fill="white"/>
<path opacity="0.69" d="M95.3294 267.091C94.9603 268.901 93.6683 269.504 92.1919 270.108C92.7456 268.298 94.222 267.895 95.3294 267.091Z" fill="white"/>
<path opacity="0.69" d="M122.459 247.179C122.828 247.984 123.013 248.788 122.09 249.391C121.167 249.995 120.06 250.397 119.137 250.799L119.322 251C119.875 250.397 120.429 249.593 121.167 248.989C121.536 248.185 122.09 247.581 122.459 247.179Z" fill="white"/>
<path opacity="0.69" d="M458.537 175.381C460.013 174.979 461.49 174.577 462.966 174.175C463.335 175.381 462.413 175.381 462.043 175.583C461.305 175.985 460.567 176.186 459.829 176.186C459.46 175.985 459.091 175.381 458.537 175.381C458.537 175.381 458.537 175.18 458.537 175.381Z" fill="white"/>
<path opacity="0.69" d="M118.768 237.727C118.768 238.732 118.768 239.738 117.845 240.341C117.292 240.743 116.738 241.347 116.184 241.95C115.815 241.145 115.631 240.542 116.553 239.738C117.292 239.335 118.03 238.531 118.768 237.727Z" fill="white"/>
<path opacity="0.69" d="M93.8528 231.09C92.93 231.895 92.3763 233.504 90.5308 232.699C90.5308 232.699 90.7153 232.9 90.5308 232.9C91.6381 232.096 92.3764 230.889 93.8528 231.09Z" fill="white"/>
<path opacity="0.69" d="M86.6551 225.459C86.286 225.861 85.9169 226.263 85.3632 226.464C85.1787 226.464 84.8096 226.263 84.625 226.263C84.8096 226.062 84.8095 226.062 84.9941 225.861C85.3632 225.459 85.9169 225.258 86.286 224.855C86.4706 225.057 86.4705 225.258 86.6551 225.459Z" fill="white"/>
<path opacity="0.69" d="M78.9037 262.665C78.7191 260.252 78.9037 260.252 81.3029 260.252L81.1183 260.051C80.5647 260.855 79.6419 261.66 78.9037 262.665Z" fill="white"/>
<path opacity="0.69" d="M151.988 258.442C152.542 259.649 152.173 260.252 150.881 260.453C151.25 259.649 151.619 259.045 151.988 258.442Z" fill="white"/>
<path opacity="0.69" d="M91.8229 259.448C91.0846 260.051 90.531 260.453 89.9773 260.654C89.9773 260.654 89.6082 260.252 89.6082 260.051C90.1618 259.247 90.7155 258.844 91.8229 259.448Z" fill="white"/>
<path opacity="0.69" d="M81.4875 260.251C81.303 258.843 82.4103 259.044 82.964 257.234C82.964 259.648 82.2258 259.849 81.4875 260.251C81.4875 260.251 81.303 260.05 81.4875 260.251Z" fill="white"/>
<path opacity="0.69" d="M121.352 258.04C120.983 258.241 120.613 258.442 120.244 258.643C120.244 258.643 120.06 258.442 119.875 258.442C120.244 258.04 120.798 257.839 121.167 257.437C121.167 257.638 121.352 257.638 121.352 258.04Z" fill="white"/>
<path opacity="0.69" d="M154.941 258.24C155.125 257.838 155.125 257.436 155.31 257.034C155.679 256.43 156.417 255.827 156.786 255.425C156.786 256.833 156.048 257.637 154.941 258.24C154.941 258.24 154.756 258.039 154.941 258.24Z" fill="white"/>
<path opacity="0.69" d="M87.947 254.621C88.1315 256.23 86.6551 255.827 86.286 256.632C85.9169 255.023 87.0242 254.822 87.947 254.621C87.947 254.822 87.947 254.621 87.947 254.621Z" fill="white"/>
<path opacity="0.69" d="M98.0975 253.415C98.4666 255.225 96.9902 254.822 96.0674 255.225C96.8056 254.621 97.5438 254.018 98.0975 253.415C98.2821 253.616 98.0975 253.415 98.0975 253.415Z" fill="white"/>
<path opacity="0.69" d="M127.811 252.811C127.073 253.615 126.335 254.621 125.597 255.426C125.781 253.414 126.15 253.213 127.811 252.811C127.996 252.811 127.811 252.811 127.811 252.811Z" fill="white"/>
<path opacity="0.69" d="M101.051 251.402C100.866 253.615 100.497 253.816 98.2822 253.413L98.4668 253.615C99.205 252.81 100.128 252.207 101.051 251.402C101.051 251.603 101.051 251.402 101.051 251.402Z" fill="white"/>
<path opacity="0.69" d="M140.73 265.682C140.177 266.688 139.808 267.693 139.254 268.9C139.069 268.297 138.7 267.693 139.438 267.09C139.808 266.688 140.177 266.285 140.73 265.682C140.73 265.883 140.73 265.682 140.73 265.682Z" fill="white"/>
<path opacity="0.69" d="M128.181 265.481C128.919 267.492 127.258 267.894 126.335 268.699L126.52 268.9C126.704 268.297 126.704 267.693 126.889 267.291C127.258 266.487 127.811 266.084 128.181 265.481Z" fill="white"/>
<path opacity="0.69" d="M97.9131 264.877C97.544 266.285 96.8058 267.29 95.3293 267.089L95.5139 267.29C96.2521 266.486 97.1749 265.681 97.9131 264.877C98.0977 264.877 97.9131 264.877 97.9131 264.877Z" fill="white"/>
<path opacity="0.69" d="M145.344 262.664C144.791 263.67 144.421 264.876 143.868 265.882C143.499 264.273 144.606 263.67 145.344 262.664Z" fill="white"/>
<path opacity="0.69" d="M100.681 262.664C100.497 264.273 99.5741 265.077 98.0977 264.876C98.0977 264.876 98.2822 264.876 98.0977 264.876C98.8359 264.072 99.7587 263.469 100.681 262.664Z" fill="white"/>
<path opacity="0.69" d="M78.9038 262.666C78.1656 263.068 77.4274 263.47 76.1355 264.275C77.0583 262.465 77.7965 261.862 78.9038 262.666Z" fill="white"/>
<path opacity="0.69" d="M135.932 260.855C135.932 262.263 135.009 262.867 134.086 263.671H134.271C133.717 261.861 135.563 261.66 135.932 260.855Z" fill="white"/>
<path opacity="0.69" d="M113.6 263.067C114.154 262.464 114.708 262.061 115.261 261.257C115.261 263.067 114.523 263.067 113.6 263.067C113.6 263.067 113.416 263.067 113.6 263.067Z" fill="white"/>
<path opacity="0.69" d="M103.265 243.56C102.343 244.566 101.42 246.175 99.7588 244.767C100.312 244.566 100.866 244.163 101.42 244.163C101.973 243.962 102.712 243.761 103.265 243.56Z" fill="white"/>
<path opacity="0.69" d="M158.448 246.576C159.001 245.168 159.924 244.363 161.216 244.564V244.363C160.662 245.771 159.74 246.374 158.448 246.576Z" fill="white"/>
<path opacity="0.69" d="M72.0753 247.38C71.891 247.581 72.2595 247.179 72.8122 246.777C73.1807 247.984 72.0753 247.782 72.0753 247.38Z" fill="white"/>
<path opacity="0.69" d="M85.9167 248.586C86.655 247.983 87.2087 247.38 88.316 246.374C87.7623 248.385 86.8395 248.586 85.9167 248.586C85.9167 248.586 85.9167 248.385 85.9167 248.586Z" fill="white"/>
<path opacity="0.69" d="M112.862 243.56C114.154 241.348 114.154 241.348 116.184 241.951C115.077 242.554 113.785 242.956 112.862 243.56C112.862 243.56 112.678 243.359 112.862 243.56Z" fill="white"/>
<path opacity="0.69" d="M103.45 243.76C103.265 241.95 104.557 242.151 105.48 242.352C104.742 242.553 104.004 243.156 103.45 243.76C103.45 243.76 103.265 243.559 103.45 243.76Z" fill="white"/>
<path opacity="0.69" d="M136.486 246.576C135.932 247.783 135.009 248.588 133.533 248.588V248.789C134.271 247.381 135.194 246.375 136.486 246.576Z" fill="white"/>
<path opacity="0.69" d="M82.2258 240.744C81.6721 240.744 81.4875 240.744 81.4875 240.543C81.4875 240.543 81.303 240.14 81.4875 240.14C81.8567 239.939 82.2258 239.537 82.5949 239.336L82.964 239.537C82.5949 240.14 82.4103 240.543 82.2258 240.744Z" fill="white"/>
<path opacity="0.69" d="M118.953 237.727C119.875 237.324 120.798 236.922 122.275 236.118C121.167 238.129 120.06 238.129 118.953 237.727C118.953 237.727 118.768 237.727 118.953 237.727Z" fill="white"/>
<path opacity="0.69" d="M112.678 235.917C112.308 236.52 111.939 237.123 111.201 237.928C111.201 236.319 112.124 236.52 112.678 235.917C112.678 236.118 112.678 235.917 112.678 235.917Z" fill="white"/>
<path opacity="0.69" d="M103.635 236.721C102.896 237.124 102.158 237.526 101.051 238.129C102.158 236.319 102.158 236.319 103.635 236.721Z" fill="white"/>
<path opacity="0.69" d="M104.188 249.593C104.926 248.386 105.849 247.582 107.141 247.783L106.956 247.582C106.587 249.191 105.48 249.794 104.188 249.593Z" fill="white"/>
<path opacity="0.69" d="M130.395 250.397C130.026 252.408 129.841 252.408 127.811 252.81L127.996 253.011C128.365 251.403 129.657 251.201 130.395 250.397Z" fill="white"/>
<path opacity="0.69" d="M90.7156 252.408V252.006C91.8229 251.604 92.7457 251.201 93.8531 250.598C93.8531 250.598 93.6685 250.397 93.8531 250.397C93.1148 251.805 92.192 252.81 90.7156 252.408Z" fill="white"/>
<path opacity="0.69" d="M73.9207 233.504C74.8434 233.303 75.5817 232.901 76.3199 232.7C76.3199 234.711 75.028 233.705 73.9207 233.504Z" fill="white"/>
<path opacity="0.69" d="M104.004 249.392C103.45 251.202 102.896 251.403 101.051 251.403L101.235 251.604C102.158 250.8 103.081 250.197 104.004 249.392C104.188 249.593 104.004 249.392 104.004 249.392Z" fill="white"/>
<path opacity="0.69" d="M130.58 250.397C131.687 249.995 132.425 248.386 133.717 248.587V248.386C132.979 250.196 131.872 250.598 130.58 250.397C130.58 250.397 130.395 250.397 130.58 250.397Z" fill="white"/>
<path opacity="0.69" d="M153.649 249.794C154.203 248.588 155.126 247.783 156.418 247.783V247.582C156.233 249.191 154.941 249.392 153.649 249.794Z" fill="white"/>
<path opacity="0.69" d="M87.9469 263.268C87.5778 263.469 87.3932 263.671 87.0241 264.073C86.8395 263.671 86.4705 263.268 86.4705 263.268C86.655 262.866 87.2086 262.665 87.5778 262.464C87.7623 262.464 87.7623 262.866 87.9469 263.268Z" fill="white"/>
<path opacity="0.69" d="M141.284 275.537C141.468 276.542 140.915 276.542 140.176 276.743C139.992 276.743 139.807 276.542 139.807 276.341C139.807 276.14 139.992 275.939 139.992 275.939C140.361 275.738 140.915 275.738 141.284 275.537Z" fill="white"/>
<path opacity="0.69" d="M156.418 276.14V275.938L156.787 276.14H156.418Z" fill="white"/>
<path opacity="0.69" d="M141.284 275.537C141.468 275.336 141.838 274.934 142.022 274.732C142.207 274.934 142.207 274.934 142.391 275.135C142.207 275.336 141.838 275.537 141.653 275.537C141.469 275.738 141.284 275.537 141.284 275.537Z" fill="white"/>
<path opacity="0.69" d="M145.528 271.917C145.528 272.118 145.712 272.52 145.712 272.721C145.712 272.922 145.344 272.922 145.16 273.123C145.16 272.922 145.16 272.922 145.16 272.721C145.16 272.52 145.344 272.319 145.528 271.917Z" fill="white"/>
<path opacity="0.69" d="M107.509 267.894C107.325 267.894 107.325 268.095 107.14 268.095C106.956 268.095 106.956 267.894 106.772 267.894C106.956 267.894 106.956 267.693 107.14 267.693C107.14 267.693 107.325 267.693 107.509 267.894Z" fill="white"/>
<path opacity="0.69" d="M143.868 266.084C142.76 266.084 141.653 265.883 140.546 265.883C141.838 265.481 142.945 265.28 143.868 266.084Z" fill="white"/>
<path opacity="0.69" d="M128.18 265.481C128.734 265.481 129.288 265.682 129.657 265.682C129.657 265.883 129.472 266.084 129.472 266.285C129.288 265.883 128.734 265.682 128.18 265.481Z" fill="white"/>
<path opacity="0.69" d="M145.529 271.916C145.713 271.916 146.082 271.916 146.267 271.715C146.452 271.715 146.452 271.715 146.636 271.715C146.452 271.916 146.267 272.118 146.267 272.118C146.082 272.319 145.713 272.118 145.529 271.916Z" fill="white"/>
<path opacity="0.69" d="M134.086 269.705C134.27 270.107 134.454 270.308 134.454 270.71C134.454 270.911 134.086 271.112 133.902 271.112C133.902 270.911 133.717 270.71 133.902 270.71C133.717 270.308 133.902 270.107 134.086 269.705Z" fill="white"/>
<path opacity="0.69" d="M134.086 269.906C134.824 269.705 135.747 269.504 136.485 269.504L136.301 269.303C135.932 270.711 135.009 270.308 134.086 269.906C134.086 269.906 134.086 269.705 134.086 269.906Z" fill="white"/>
<path opacity="0.69" d="M136.486 269.302C137.224 267.694 138.331 268.9 139.254 268.9C138.331 269.101 137.408 269.101 136.486 269.302C136.486 269.302 136.301 269.302 136.486 269.302Z" fill="white"/>
<path opacity="0.69" d="M126.519 268.699C126.15 268.9 125.966 269.101 125.597 269.101C125.412 269.101 125.228 268.9 124.858 268.699C125.043 268.498 125.412 268.296 125.597 268.296C125.966 268.498 126.15 268.699 126.519 268.699C126.519 268.9 126.519 268.699 126.519 268.699Z" fill="white"/>
<path opacity="0.69" d="M92.0063 221.235C91.8221 221.235 91.8221 221.436 91.6379 221.436C91.6379 221.235 91.4536 221.034 91.4536 220.833C91.6378 220.833 91.8221 220.833 91.8221 220.833C91.8221 220.833 91.8221 221.034 92.0063 221.235Z" fill="white"/>
<path opacity="0.69" d="M92.1919 243.962C92.3761 243.962 92.3762 243.962 92.5604 243.761C92.5604 243.962 92.5604 244.163 92.5604 244.364C92.3762 244.364 92.1919 244.364 92.1919 244.364C92.1919 244.163 92.1919 243.962 92.1919 243.962Z" fill="white"/>
<path opacity="0.69" d="M77.7964 242.756C77.9806 242.756 77.9806 242.555 78.1649 242.555C78.1649 242.756 78.1649 242.957 78.1649 243.158C77.9806 243.158 77.7964 243.158 77.7964 243.158C77.7964 243.158 77.9806 242.957 77.7964 242.756Z" fill="white"/>
<path opacity="0.69" d="M96.9894 239.739C96.9894 240.141 97.1737 240.342 97.1737 240.744C97.1737 240.945 96.621 240.945 96.4368 241.147C96.4368 240.945 96.4368 240.744 96.4368 240.744C96.621 240.342 96.9894 240.141 96.9894 239.739Z" fill="white"/>
<path opacity="0.69" d="M97.175 239.939C97.5442 239.738 97.7287 239.738 98.0978 239.537C98.2824 239.537 98.2824 239.537 98.467 239.738C98.2824 239.939 98.0978 240.341 97.9133 240.341C97.5441 240.14 97.3596 239.939 97.175 239.939C97.175 239.939 96.9905 239.738 97.175 239.939Z" fill="white"/>
<path opacity="0.69" d="M136.116 238.531C136.116 238.732 136.3 238.933 136.3 238.933C136.116 238.933 136.116 239.135 135.932 239.135C135.932 239.135 135.747 238.933 135.747 238.732C135.747 238.531 135.932 238.531 136.116 238.531Z" fill="white"/>
<path opacity="0.69" d="M110.832 230.688C110.648 230.688 110.648 230.688 110.463 230.487C110.648 230.286 110.832 230.084 111.017 230.084C111.017 230.084 111.201 230.286 111.386 230.487C111.017 230.688 110.832 230.688 110.832 230.688Z" fill="white"/>
<path opacity="0.69" d="M79.642 230.486C79.4575 230.486 79.4574 230.688 79.2729 230.688C79.0883 230.688 79.0884 230.486 78.9038 230.486C79.2729 230.486 79.4575 230.486 79.642 230.486Z" fill="white"/>
<path opacity="0.69" d="M81.6721 228.274C81.8564 228.274 81.8563 228.073 82.0406 228.073C82.0406 228.274 82.0406 228.475 82.0406 228.677C81.8563 228.677 81.6721 228.677 81.6721 228.677C81.6721 228.677 81.6721 228.475 81.6721 228.274Z" fill="white"/>
<path opacity="0.69" d="M88.5007 223.246C88.5007 223.045 88.685 223.045 88.685 222.844C88.685 223.045 88.8692 223.246 88.8692 223.246C88.8692 223.447 88.685 223.447 88.5007 223.246Z" fill="white"/>
<path opacity="0.69" d="M135.932 260.654C136.116 260.654 136.486 260.654 136.67 260.654C136.486 260.654 136.116 260.654 135.932 260.654C135.932 260.856 135.932 260.654 135.932 260.654Z" fill="white"/>
<path opacity="0.69" d="M104.926 260.454C105.111 260.454 105.11 260.252 105.295 260.252C105.295 260.454 105.295 260.655 105.479 260.856C105.295 260.856 105.11 260.856 105.11 260.856C104.926 260.655 104.926 260.454 104.926 260.454Z" fill="white"/>
<path opacity="0.69" d="M151.988 258.442C152.911 258.442 153.834 258.241 154.941 258.241C153.834 259.246 152.911 258.643 151.988 258.442Z" fill="white"/>
<path opacity="0.69" d="M141.099 257.838C140.915 258.241 140.73 258.442 140.546 258.844C140.361 258.844 140.361 258.643 140.177 258.643C140.546 258.241 140.915 258.039 141.099 257.838C141.284 257.838 141.099 257.838 141.099 257.838Z" fill="white"/>
<path opacity="0.69" d="M143.868 257.437C142.945 257.638 142.022 257.638 141.099 257.839C141.838 256.633 142.945 257.437 143.868 257.437Z" fill="white"/>
<path opacity="0.69" d="M93.6675 257.637C93.4832 257.637 93.4832 257.838 93.299 257.838C93.299 257.637 93.299 257.435 93.1147 257.234C93.299 257.234 93.299 257.234 93.4832 257.234C93.6675 257.234 93.6675 257.436 93.6675 257.637Z" fill="white"/>
<path opacity="0.69" d="M73.3665 257.234C73.5508 257.234 73.5507 257.436 73.735 257.436C73.5507 257.637 73.3665 257.838 73.1823 257.838C73.1823 257.637 72.998 257.637 72.998 257.436C72.998 257.436 73.1823 257.234 73.3665 257.234Z" fill="white"/>
<path opacity="0.69" d="M161.031 263.067C160.846 263.268 160.662 263.47 160.478 263.671C160.662 263.47 160.662 263.47 160.846 263.269C160.846 263.269 161.031 263.268 161.031 263.067Z" fill="white"/>
<path opacity="0.69" d="M134.086 263.47C133.348 263.672 133.717 263.47 134.086 263.47C133.348 263.47 133.717 263.47 134.086 263.47C134.271 263.672 134.086 263.47 134.086 263.47Z" fill="white"/>
<path opacity="0.69" d="M161.031 263.067C161.216 262.866 161.4 262.665 161.768 262.464C161.4 262.665 161.216 262.866 161.031 263.067Z" fill="white"/>
<path opacity="0.69" d="M145.344 262.665C145.528 262.665 145.713 262.665 146.081 262.866C145.897 262.866 145.897 262.665 145.713 262.665C145.713 262.463 145.528 262.665 145.344 262.665Z" fill="white"/>
<path opacity="0.69" d="M100.682 262.665C100.866 262.665 101.235 262.665 101.42 262.665C101.604 262.665 101.604 262.665 101.789 262.464C101.604 262.464 101.604 262.665 101.42 262.665C101.235 262.866 100.866 262.665 100.682 262.665Z" fill="white"/>
<path opacity="0.69" d="M156.602 247.581C156.971 246.575 157.709 246.374 158.632 246.575L158.448 246.374C158.079 247.581 157.34 247.581 156.602 247.581Z" fill="white"/>
<path opacity="0.69" d="M122.459 247.18C123.382 247.381 124.489 246.174 125.412 247.18C124.489 246.979 123.567 247.18 122.459 247.18Z" fill="white"/>
<path opacity="0.69" d="M110.647 256.432C110.647 256.432 110.647 256.23 110.832 256.23C111.016 256.23 111.016 256.23 111.2 256.23C111.2 256.23 111.2 256.432 111.016 256.432C111.016 256.633 110.832 256.432 110.647 256.432Z" fill="white"/>
<path opacity="0.69" d="M159.186 254.822C158.632 256.23 157.525 255.224 156.787 255.425C157.709 255.224 158.448 255.023 159.186 254.822Z" fill="white"/>
<path opacity="0.69" d="M125.781 255.425C125.597 255.425 125.228 255.425 125.043 255.425C124.858 255.425 124.858 255.425 124.674 255.626C124.858 255.425 124.858 255.224 125.043 255.224C125.228 255.224 125.597 255.224 125.781 255.425Z" fill="white"/>
<path opacity="0.69" d="M76.5046 255.224V255.425H76.1355L76.5046 255.224Z" fill="white"/>
<path opacity="0.69" d="M159.371 254.821C159.555 254.62 159.555 254.218 159.74 254.017C159.924 254.017 160.109 254.218 160.293 254.218C160.109 254.218 160.109 254.419 159.924 254.419C159.74 254.821 159.555 254.821 159.371 254.821C159.371 254.821 159.186 254.821 159.371 254.821Z" fill="white"/>
</g>
</svg>
