<svg width="435" height="121" viewBox="0 0 435 121" fill="none" xmlns="http://www.w3.org/2000/svg">
<path d="M286.6 18.3854C285.6 19.0854 284.5 19.5854 283.3 19.7854C277.6 20.7854 260.8 22.3854 257.6 22.3854C253.8 22.3854 255.4 20.2854 255.4 20.2854L261 14.4854C261 14.4854 261.9 12.2854 268.8 11.1854C275.7 9.98545 302.4 7.08545 302.4 7.08545L286.6 18.3854Z" fill="white"/>
<path d="M330.8 10.1851C330.8 10.1851 334.2 7.38506 336.9 4.58506C339.6 1.88506 337.3 1.68506 337.3 1.68506L328.4 3.38506C328.4 3.38506 328.4 7.48506 326.1 12.1851L330.8 10.1851Z" fill="white"/>
<path d="M305.9 29.9854C205.9 101.185 80.6 117.785 0 120.885C0 120.885 179.5 118.985 283.3 55.2854C283.3 55.2854 304 44.3854 305.6 31.2854L305.9 29.9854Z" fill="white"/>
<path d="M315.7 32.6853C315.3 32.6853 315 32.4853 314.8 32.0853L310.499 22.7853C310.299 22.2853 310.499 21.6853 310.999 21.4853C311.499 21.2853 312.1 21.4853 312.3 21.9853L316.599 31.2853C316.799 31.7853 316.599 32.3853 316.099 32.5853C315.999 32.6853 315.8 32.6853 315.7 32.6853Z" fill="white"/>
<path d="M294 43.3854H293.9C293.3 43.2854 293 42.7854 293 42.2854L294.8 29.8854C294.9 29.2854 295.4 28.9854 296 28.9854C296.6 29.0854 296.9 29.5854 296.9 30.0854L295.1 42.4854C294.9 42.9854 294.4 43.3854 294 43.3854Z" fill="white"/>
<path d="M308.8 32.6854C308.8 32.6854 307 39.5854 301.2 45.8854C303.7 44.4854 333 30.4854 330.7 16.5854C326 20.0854 318.6 25.2854 308.8 32.6854Z" fill="white"/>
<path d="M324.3 0.085046C321.2 0.785046 317.9 2.28505 316.8 2.58505L316.3 2.78505C315.9 2.98505 310 8.68505 310 8.68505L309.2 8.58505C309.1 8.68505 307.5 8.48505 306.7 8.28505C307.4 8.08505 308.2 7.78505 308.9 7.68505C309.2 7.18505 309.5 6.68505 309.9 6.28505C310.3 5.78505 310.7 5.28505 311.1 4.88505C311.5 4.48505 312 3.98505 312.5 3.58505C312.6 3.48505 312.7 3.38505 312.9 3.28505C310.8 3.58505 307.8 4.58505 302 8.98505C294 15.085 275.2 29.185 270.4 32.785C269.7 33.385 268.8 33.685 267.9 33.885L254.8 36.585C254.2 36.685 254 37.585 254.6 37.885C257.6 39.585 264.1 43.185 265.8 43.285C269.2 43.385 270.9 40.285 272.2 39.085C272.7 38.685 273.2 38.385 273.8 38.185C277.9 36.885 295.6 32.085 306.8 25.985C318.8 19.485 326.2 13.385 326.6 1.48505C326.8 0.285047 325.6 -0.214954 324.3 0.085046Z" fill="white"/>
<path d="M59 89.5741V58.4259H81.5233V62.4715H64.4801V71.962H79.9094V75.9924H64.4801V89.5741H59Z" fill="white"/>
<path d="M95.2543 89.5741V58.4259H100.734V85.5285H117.192V89.5741H95.2543Z" fill="white"/>
<path d="M160.572 74C160.572 77.3257 159.862 80.185 158.444 82.5779C157.025 84.9607 155.08 86.7959 152.609 88.0837C150.15 89.3612 147.353 90 144.22 90C141.075 90 138.267 89.3612 135.796 88.0837C133.337 86.7959 131.398 84.9556 129.979 82.5627C128.56 80.1698 127.851 77.3156 127.851 74C127.851 70.6743 128.56 67.82 129.979 65.4373C131.398 63.0444 133.337 61.2091 135.796 59.9316C138.267 58.6439 141.075 58 144.22 58C147.353 58 150.15 58.6439 152.609 59.9316C155.08 61.2091 157.025 63.0444 158.444 65.4373C159.862 67.82 160.572 70.6743 160.572 74ZM155.145 74C155.145 71.4651 154.666 69.3308 153.708 67.597C152.762 65.853 151.462 64.5349 149.807 63.6426C148.163 62.7402 146.301 62.289 144.22 62.289C142.127 62.289 140.259 62.7402 138.616 63.6426C136.973 64.5349 135.672 65.853 134.714 67.597C133.768 69.3308 133.295 71.4651 133.295 74C133.295 76.5349 133.768 78.6743 134.714 80.4183C135.672 82.1521 136.973 83.4702 138.616 84.3726C140.259 85.2649 142.127 85.711 144.22 85.711C146.301 85.711 148.163 85.2649 149.807 84.3726C151.462 83.4702 152.762 82.1521 153.708 80.4183C154.666 78.6743 155.145 76.5349 155.145 74Z" fill="white"/>
<path d="M175.66 89.5741H169.842L182.913 58.4259H189.244L202.315 89.5741H196.498L186.229 64.0836H185.946L175.66 89.5741ZM176.635 77.3764H195.505V81.3308H176.635V77.3764Z" fill="white"/>
<path d="M208.469 62.4715V58.4259H236.579V62.4715H225.246V78.5741L219.784 80.5741V62.4715H208.469Z" fill="white"/>
<path d="M249.782 89.5741V65.4259L262.729 58.4259C265.554 58.4259 267.895 58.8669 269.752 59.749C271.608 60.6312 272.997 61.8378 273.919 63.3688C274.841 64.8897 275.303 66.6033 275.303 68.5095C275.303 70.4259 274.836 72.1496 273.902 73.6806C272.979 75.2015 271.584 76.4081 269.716 77.3004C267.86 78.1825 265.525 78.6236 262.711 78.6236H253.808V74.6388H262.214C264 74.6388 265.448 74.3752 266.559 73.8479C267.671 73.3105 268.486 72.5805 269.007 71.6578C269.527 70.7351 269.787 69.6857 269.787 68.5095C269.787 67.3333 269.527 66.289 269.007 65.3764C268.486 64.4639 267.665 63.7491 266.542 63.2319C265.43 62.7148 263.964 62.4563 262.143 62.4563H255.262V89.5741H249.782Z" fill="white"/>
<path d="M288.719 89.5741V58.4259H294.199V85.5285H310.657V89.5741H288.719Z" fill="white"/>
<path d="M328.822 89.5741H323.005L336.075 58.4259H342.407L355.477 89.5741H349.66L339.392 64.0836H339.108L328.822 89.5741ZM329.797 77.3764H348.667V81.3308H329.797V77.3764Z" fill="white"/>
<path d="M397.03 58.4259V89.5741H391.993L373.531 66.73H373.194V89.5741H367.714V58.4259H372.786L391.266 81.3004H391.603V58.4259H397.03Z" fill="white"/>
<path d="M412.016 89.5741V58.4259H434.787V62.4715H417.496V71.962H433.599V75.9924H417.496V85.5285H435V89.5741H412.016Z" fill="white"/>
</svg>
